<svg id="Group_12763" data-name="Group 12763" xmlns="http://www.w3.org/2000/svg" xmlns:xlink="http://www.w3.org/1999/xlink" width="176.067" height="41.67" viewBox="0 0 176.067 41.67">
  <defs>
    <clipPath id="clip-path">
      <rect id="Rectangle_4" data-name="Rectangle 4" width="176.067" height="41.67" fill="#1c6fe8"/>
    </clipPath>
  </defs>
  <g id="Group_8" data-name="Group 8" clip-path="url(#clip-path)">
    <path id="Path_7" data-name="Path 7" d="M41.7,0H12.079V8.731h5.443v-3.3H36.287V24.151H29.6V12.1H0V41.651H29.592V32.939h-5.41v3.3H5.419V17.523H12.1V29.567H41.713v-.348q0-14.443,0-28.885C41.712.223,41.7.111,41.7,0M24.168,24.157H17.53V17.515h6.638Zm29.54-5.089c3.76,0,7.52.01,11.28-.01a8.591,8.591,0,0,0,1.938-.225,4.687,4.687,0,0,0,3.586-3.043,6.485,6.485,0,0,0,.311-2.616,4.249,4.249,0,0,0-2.841-3.949c-.091-.037-.18-.078-.31-.134a3.79,3.79,0,0,0,2.109-2.746,6.235,6.235,0,0,0,.131-2.221,4.065,4.065,0,0,0-2.3-3.4A6.323,6.323,0,0,0,66.462.288C65.979.16,65.479.093,64.987,0H53.454c0,.111.012.223.012.334q0,9.185,0,18.37v.352c.113.005.178.011.243.011m4.259-15.3h.3c1.558,0,3.115,0,4.673,0a5.9,5.9,0,0,1,.725.045A1.635,1.635,0,0,1,65.2,5.5a3.356,3.356,0,0,1-.066.887,1.589,1.589,0,0,1-1.552,1.355c-.176.016-.354.014-.531.014H57.968Zm-.008,7.658c.094-.006.184-.016.273-.016,1.846,0,3.693,0,5.539,0a4.135,4.135,0,0,1,.805.072,1.77,1.77,0,0,1,1.5,2.052,1.552,1.552,0,0,1-1.518,1.677,5.426,5.426,0,0,1-.752.058q-2.811.007-5.623,0c-.065,0-.129-.005-.228-.01Zm61.908,7.284v.343h4.523v-7.2c1.379,0,2.722.013,4.065-.01a.567.567,0,0,1,.6.382c1.092,2.2,2.2,4.394,3.3,6.594a.382.382,0,0,0,.4.255c1.53-.011,3.06-.005,4.59-.005h.286l-4.381-8.091a.467.467,0,0,1,.086-.06,3.818,3.818,0,0,0,2.505-2.69,8.7,8.7,0,0,0,.17-4.179A4.485,4.485,0,0,0,132.591.253c-.448-.118-.914-.17-1.371-.253H119.855c0,.111.012.223.012.334q0,9.186,0,18.372m4.545-14.764c.1,0,.2-.013.294-.013,1.6,0,3.208-.011,4.811.007a4.528,4.528,0,0,1,1.155.163,1.124,1.124,0,0,1,.894,1.028,9.285,9.285,0,0,1,.017,1.72c-.093.811-.48,1.122-1.32,1.2-.194.019-.391.029-.586.029q-2.49,0-4.979,0c-.091,0-.181-.009-.286-.015Zm16.1,14.874q0-9.366,0-18.732c0-.028,0-.056,0-.083h14.669V4H145.01V7.512h9.8v4.024h-9.8V15.08h10.286v3.97H140.529c-.006-.075-.018-.154-.018-.234m16.573.252L164.1,9.434l-.885-1.267q-2.763-3.953-5.526-7.906c-.057-.082-.1-.174-.15-.261h5.375c.063.112.119.228.19.334,4.009,6.073,8.257,11.981,12.423,17.946.175.25.363.491.544.736v.056c-1.661,0-3.321-.011-4.982,0a.6.6,0,0,1-.578-.317c-1.236-1.853-2.485-3.7-3.729-5.544-.056-.083-.114-.164-.188-.27l-1.5,2.16c-.873,1.254-1.744,2.511-2.623,3.76a.452.452,0,0,1-.294.194c-1.67.012-3.339.008-5.086.008M100.352,3.931c-.027-.045-.044-.06-.044-.075q0-1.928.007-3.856h16.74V3.915h-6.047v15.13h-4.665V3.931ZM81.875,3.743q0-1.789,0-3.578A1.24,1.24,0,0,1,81.9,0h16.74V3.923h-6.07V19.053H87.919V3.93H81.895c-.009-.081-.02-.134-.02-.187M74.409.362c0-.121-.01-.241-.016-.362H79.04c0,.1.012.2.012.306q0,9.2,0,18.393v.35H74.41v-.378q0-9.155,0-18.31m98.367,2.944h-2.588V0h5.879V5.873h-3.291ZM121.682,35.337a.822.822,0,0,1-.852.709c-1.133.037-2.268.011-3.418.011V33.891h1.408c.578,0,1.156-.011,1.733,0a1.093,1.093,0,0,1,1.128,1.442m-9.806-3.921a6.244,6.244,0,0,1,.022,3.23,1.959,1.959,0,0,1-1.9,1.524,4.038,4.038,0,0,1-.865-.013,2.038,2.038,0,0,1-1.891-1.953c-.063-.375-.08-.758-.129-1.246.069-.432.12-.972.248-1.492a1.821,1.821,0,0,1,1.528-1.412,3.459,3.459,0,0,1,1.635.045,1.811,1.811,0,0,1,1.355,1.316m5.534.9V30.079h.4c.8,0,1.6-.008,2.406.006a.987.987,0,0,1,1.063,1.124,1.007,1.007,0,0,1-1.107,1.112c-.912,0-1.824,0-2.761,0m11.685-1.974,1.188,3.5h-2.464c.433-1.19.86-2.362,1.275-3.5m46.693-5.4H53.589V41.67H176.067V24.947l-.28,0m-78.873,13h-1.6q-.05-.392-.1-.767c-.033,0-.058-.013-.066-.005a3.655,3.655,0,0,1-3.059.9,5.051,5.051,0,0,1-1.07-.191,3.279,3.279,0,0,1-2.429-2.423,8.23,8.23,0,0,1-.105-3.929A3.717,3.717,0,0,1,91.91,28.59a6.422,6.422,0,0,1,2.924.279,3.047,3.047,0,0,1,2.03,2.787c0,.063-.005.127-.009.207H94.919c-.032-.129-.055-.258-.1-.381A1.71,1.71,0,0,0,93.25,30.29a4.3,4.3,0,0,0-1.275.067,1.765,1.765,0,0,0-1.425,1.476,7.193,7.193,0,0,0-.039,2.887,1.848,1.848,0,0,0,1.847,1.7,3.721,3.721,0,0,0,1.3-.067,1.647,1.647,0,0,0,1.378-2.1H92.386V32.618h4.529Zm8.047,0H98.3V28.712h2.035v7.527h4.631Zm8.992-2.906a3.479,3.479,0,0,1-3.4,3,8.108,8.108,0,0,1-2.367-.074,3.448,3.448,0,0,1-2.97-3.09c-.087-.522-.116-1.053-.178-1.646.069-.533.1-1.131.229-1.709a3.5,3.5,0,0,1,2.783-2.806,6.743,6.743,0,0,1,3.214.009,3.373,3.373,0,0,1,2.718,2.846,8.643,8.643,0,0,1-.028,3.468m9.871.639a2.3,2.3,0,0,1-2.307,2.248c-.846.051-1.7.033-2.545.037-1.073.005-2.146,0-3.219,0h-.338V28.688h.3c1.642,0,3.285-.016,4.926.011a4.918,4.918,0,0,1,1.395.231,1.847,1.847,0,0,1,1.327,1.668,2.416,2.416,0,0,1-.422,1.883,4.906,4.906,0,0,1-.843.68c.016,0,.074.016.131.036a2.1,2.1,0,0,1,1.6,2.481m9.257,2.287c-.383,0-.765-.008-1.147,0a.277.277,0,0,1-.322-.221c-.2-.59-.426-1.171-.629-1.76a.264.264,0,0,0-.3-.215c-1.1.008-2.2.01-3.3,0a.3.3,0,0,0-.336.247q-.317.879-.662,1.748a.329.329,0,0,1-.217.19c-.623.015-1.247.009-1.927.009l.9-2.309c.864-2.228,1.731-4.456,2.586-6.687a.374.374,0,0,1,.423-.284c.68.016,1.361.009,2.042,0a.251.251,0,0,1,.288.187q1.63,4.469,3.271,8.933a1.247,1.247,0,0,1,.029.158Zm8.275-.021H134.7V28.709h2.03v7.526h4.628Z" fill="#1c6fe8"/>
  </g>
</svg>
